<svg xmlns="http://www.w3.org/2000/svg" viewBox="0 0 1567.79 215.56"><defs><style>.cls-1{fill:#ed2590;}.cls-2{fill:#993467;}</style></defs><g id="Layer_2" data-name="Layer 2"><g id="Layer_1-2" data-name="Layer 1"><path class="cls-1" d="M121.92,8.79,8.79,121.92a30,30,0,0,0,0,42.43l42.42,42.43a30,30,0,0,0,42.43,0l49.5-49.5,49.49,49.5a30,30,0,0,0,42.43,0l42.43-42.43a30,30,0,0,0,0-42.43L164.35,8.79A30,30,0,0,0,121.92,8.79ZM65.36,192.63,22.93,150.21a10,10,0,0,1,0-14.14l49.5-49.5L129,143.14,79.5,192.63A10,10,0,0,1,65.36,192.63ZM143.14,129,86.57,72.43l49.5-49.5a10,10,0,0,1,14.14,0l49.5,49.5Zm63.64,63.64-49.5-49.49,56.57-56.57,49.5,49.5a10,10,0,0,1,0,14.14l-42.43,42.42A10,10,0,0,1,206.78,192.63Z"/><path class="cls-1" d="M385.75,63.46q20.79,0,30.36,8.34t9.57,26.64v51.81q0,4.29-4.29,4.29h-7.76q-4.12,0-4.12-4.29v-4a26,26,0,0,1,1-7.75l.66-1.82H409l-1.15,2.64q-8.08,16.83-31.35,16.83-14.68,0-22.44-6.93t-7.76-20q0-27.23,33.5-27.23h25.9v-2q0-10.56-5.11-15.09t-17.16-4.54a62.45,62.45,0,0,0-22.11,4q-4.29,1.81-5.28-2.64l-2.31-8.91q-1-4,2.8-5.28A98.66,98.66,0,0,1,385.75,63.46ZM382.45,140q10.56,0,16.91-6.1t6.35-16v-1.48H383.27q-9.57,0-13.36,2.56c-2.53,1.7-3.8,4.76-3.8,9.15s1.24,7.35,3.72,9.16S376.51,140,382.45,140Z"/><path class="cls-1" d="M460.33,154.54H448.45q-4.12,0-4.13-4.29V69.4q0-4.29,4.13-4.29h10.72q4.29,0,4.29,4.29v9.74a40.22,40.22,0,0,1-1,9.07l-.66,2.15H464l.82-2.64q3.63-11.72,11.88-18t19.8-6.27h2.48q4,.33,4,4.29V79c0,2.86-1.32,4.19-4,4h-3.63q-13.86,0-22.44,11.39-8.42,11.06-8.42,29.86v26.07Q464.45,154.54,460.33,154.54Z"/><path class="cls-1" d="M539.36,156.36a113.71,113.71,0,0,1-27.88-3.14q-3.8-1-3.14-4.95l1.49-9.4q.66-4.29,5.11-3.14a82.91,82.91,0,0,0,24.26,3.47q22.11,0,22.11-10.4,0-4.79-3.71-6.84t-13.78-4l-10.56-2.14q-12.54-2.47-18.56-8.66t-6-17.08q0-26.57,39.6-26.57a125.15,125.15,0,0,1,24.92,2.48q4,.82,3.3,5L575,80.13q-.82,4.13-5,3a82,82,0,0,0-21.45-2.81q-10.4,0-15.18,2.23a7.56,7.56,0,0,0-4.78,7.34,7.19,7.19,0,0,0,3.63,6.52q3.63,2.24,13.2,4.21l10.72,2.14q25.57,5,25.58,25.74Q581.77,156.36,539.36,156.36Z"/><path class="cls-1" d="M631.93,63.46q18.81,0,29,10.56t10.23,30v11.06q0,4.13-4.29,4.12H612.29q.83,10.39,6.6,14.85T637,138.54a55.14,55.14,0,0,0,21-4c2.74-1.1,4.51-.28,5.28,2.47l2.64,9.74c.87,2.86-.06,4.73-2.81,5.61a91.9,91.9,0,0,1-28.05,4q-21.12,0-32-10.48t-10.89-30.61V104.05q0-19.45,10.31-30T631.93,63.46Zm-19.8,38.61H651.4v-2.8Q651.4,81,632.59,81,622,81,617.24,85.82T612.13,102.07Z"/><path class="cls-1" d="M701.89,154.54H690q-4.12,0-4.13-4.29V69.4q0-4.29,4.13-4.29h10.72q4.29,0,4.29,4.29v2.81A30.26,30.26,0,0,1,704,81l-.49,2.15h2l1.15-2.81A23.94,23.94,0,0,1,717.4,68a35.31,35.31,0,0,1,18.15-4.54q33.81,0,33.82,37.29v49.5c0,2.86-1.38,4.29-4.12,4.29H753.53q-4.29,0-4.29-4.29V103.72q0-11.72-4.87-17.16t-15.26-5.44a21.13,21.13,0,0,0-16.66,7.34Q706,95.81,706,106.86v43.39C706,153.11,704.63,154.54,701.89,154.54Z"/><path class="cls-1" d="M821.18,63.46q20.79,0,30.36,8.34t9.57,26.64v51.81q0,4.29-4.29,4.29h-7.76q-4.12,0-4.12-4.29v-4a26,26,0,0,1,1-7.75l.66-1.82h-2.15l-1.15,2.64q-8.09,16.83-31.35,16.83-14.69,0-22.44-6.93t-7.76-20q0-27.23,33.5-27.23h25.9v-2q0-10.56-5.11-15.09t-17.16-4.54a62.45,62.45,0,0,0-22.11,4q-4.29,1.81-5.28-2.64l-2.31-8.91q-1-4,2.8-5.28A98.66,98.66,0,0,1,821.18,63.46ZM817.88,140q10.56,0,16.91-6.1t6.35-16v-1.48H818.71q-9.59,0-13.37,2.56c-2.53,1.7-3.8,4.76-3.8,9.15s1.24,7.35,3.72,9.16S811.94,140,817.88,140Z"/><path class="cls-1" d="M895.76,154.54H883.88q-4.12,0-4.13-4.29l.17-106.92Q879.92,39,884,39h11.88q4.13,0,4.13,4.29l-.17,106.92Q899.88,154.54,895.76,154.54Z"/><path class="cls-2" d="M943.94,52.57h-6.11a2.18,2.18,0,0,1-2.47-2.47V41.52A2.19,2.19,0,0,1,937.83,39h6.11a2.19,2.19,0,0,1,2.47,2.48V50.1A2.18,2.18,0,0,1,943.94,52.57Zm0,102h-6.11a2.18,2.18,0,0,1-2.47-2.47v-84a2.18,2.18,0,0,1,2.47-2.47h6.11a2.18,2.18,0,0,1,2.47,2.47v84A2.18,2.18,0,0,1,943.94,154.54Z"/><path class="cls-2" d="M979.41,154.54h-5.94c-1.65,0-2.47-.88-2.47-2.64V68.25c0-1.76.82-2.64,2.47-2.64h5.45c1.65,0,2.47.88,2.47,2.64v3.46a32.25,32.25,0,0,1-.82,8.25l-.33,2h1.32l.82-2.14a24.3,24.3,0,0,1,11.06-11.63A37.77,37.77,0,0,1,1011.75,64q34.15,0,34.16,36.13V151.9c0,1.76-.83,2.64-2.48,2.64h-5.94c-1.65,0-2.47-.88-2.47-2.64V100.59q0-13.86-5.94-20.21T1010.27,74A26.25,26.25,0,0,0,990,82.93q-8.09,8.75-8.08,21.78V151.9C981.89,153.66,981.06,154.54,979.41,154.54Z"/><path class="cls-2" d="M1103.82,156.19q-38.94,0-38.94-39.76V103.72q0-39.77,38.94-39.76,38.78,0,38.78,39.76v12.71Q1142.6,156.2,1103.82,156.19Zm0-9.9q27.89,0,27.89-30V103.89q0-30.19-27.89-30.2-14.52,0-21.2,7.51t-6.68,22.69v12.37Q1075.94,146.29,1103.82,146.29Z"/><path class="cls-2" d="M1197.21,154.54h-9.41a2.77,2.77,0,0,1-2.64-2l-34-84.15a2.09,2.09,0,0,1,0-2,1.93,1.93,0,0,1,1.81-.82h6.6a2.59,2.59,0,0,1,2.64,2l26.07,65.5q3.14,8.25,3.47,10.73l.16,1.15h1.15q.5-3.79,3.63-11.88l25.91-65.5a2.59,2.59,0,0,1,2.64-2h6.27q3,0,2,2.8l-33.66,84.15A2.59,2.59,0,0,1,1197.21,154.54Z"/><path class="cls-2" d="M1274.26,64q17.65,0,26.07,7.75T1308.75,96V151.9c0,1.76-.83,2.64-2.48,2.64h-4c-1.65,0-2.47-.88-2.47-2.64v-6.76a20.78,20.78,0,0,1,1-6.6l.49-1.32h-1.48l-1,2.14q-7.92,16.83-31,16.83-30.19,0-30.2-25.9,0-26.4,32.84-26.4H1298V97q0-12.21-5.94-17.66t-19-5.44a60.07,60.07,0,0,0-23.27,4.45q-2.47,1.16-3.13-1.48l-1.49-5q-.83-2.31,1.65-3.14A75.37,75.37,0,0,1,1274.26,64Zm-4.45,82.33q12.54,0,20.29-8.41,7.92-8.41,7.92-21.12v-3.14h-26.56q-12.87,0-17.9,3.55t-5,12.46q0,9.08,4.79,12.87T1269.81,146.29Z"/><path class="cls-2" d="M1390.09,144.15l1.16,4.95c.33,1.65-.22,2.69-1.65,3.13a62.19,62.19,0,0,1-18.65,4v4.13h.5q13.36,0,13.36,12,0,13.2-17.65,13.2a58.18,58.18,0,0,1-9.57-.82c-1.55-.33-2.15-1.38-1.82-3.14l.33-2.47a2.23,2.23,0,0,1,3-2,31.29,31.29,0,0,0,7.59,1q6.27,0,8.5-1.24c1.48-.82,2.23-2.39,2.23-4.7q0-3.13-2-4.29t-7.43-1.16h-2.64q-2.47,0-2.31-2.64l.83-7.92q-17.33-1-26.73-11.3t-9.41-28.46V103.89q0-19.31,10.4-29.62T1368,64a66.36,66.36,0,0,1,21.12,3.3c1.43.44,1.93,1.48,1.49,3.13l-1.16,5q-.5,2.31-3,1.49a48.77,48.77,0,0,0-17.82-3q-14.69,0-22.27,7.75t-7.59,22.61v11.71q0,14.85,7.59,22.61t21.94,7.75A47.91,47.91,0,0,0,1387,142.5Q1389.44,141.84,1390.09,144.15Z"/><path class="cls-2" d="M1436.45,64q17.65,0,26.07,7.75T1470.94,96V151.9c0,1.76-.83,2.64-2.48,2.64h-4c-1.65,0-2.47-.88-2.47-2.64v-6.76a20.78,20.78,0,0,1,1-6.6l.49-1.32H1462l-1,2.14q-7.92,16.83-31,16.83-30.19,0-30.2-25.9,0-26.4,32.84-26.4h27.55V97q0-12.21-5.94-17.66t-19-5.44A60.07,60.07,0,0,0,1412,78.31q-2.47,1.16-3.13-1.48l-1.49-5q-.83-2.31,1.65-3.14A75.37,75.37,0,0,1,1436.45,64ZM1432,146.29q12.54,0,20.29-8.41,7.92-8.41,7.92-21.12v-3.14h-26.56q-12.87,0-17.9,3.55t-5,12.46q0,9.08,4.79,12.87T1432,146.29Zm-16.5-96.36-1-1.65a2.6,2.6,0,0,1,0-3.46,16.62,16.62,0,0,1,13.2-5.94A27.93,27.93,0,0,1,1439.92,42q6.6,3,11.22,3a17.67,17.67,0,0,0,9.24-2.8c1.54-.77,2.69-.6,3.46.49l.83,1.49a2.49,2.49,0,0,1-.17,3.63,16.78,16.78,0,0,1-12.87,5.77,30.26,30.26,0,0,1-12.37-3q-6.43-3.14-11.06-3.13a15.44,15.44,0,0,0-9.24,3Q1416.82,51.59,1415.5,49.93Z"/><path class="cls-2" d="M1529,156.19q-39,0-38.94-39.76V103.72Q1490.08,64,1529,64q38.77,0,38.77,39.76v12.71Q1567.79,156.2,1529,156.19Zm0-9.9q27.88,0,27.88-30V103.89q0-30.19-27.88-30.2-14.52,0-21.21,7.51t-6.68,22.69v12.37Q1501.13,146.29,1529,146.29Z"/></g></g></svg>