<svg xmlns="http://www.w3.org/2000/svg" viewBox="0 0 329.06 315.28"><defs><style>.cls-1{fill:#ed2590;}</style></defs><g id="Layer_2" data-name="Layer 2"><g id="Layer_1-2" data-name="Layer 1"><path class="cls-1" d="M143.32,8.79,30.18,121.92a30,30,0,0,0,0,42.43l42.43,42.43a30,30,0,0,0,42.42,0l49.5-49.5,49.5,49.5a30,30,0,0,0,42.42,0l42.43-42.43a30,30,0,0,0,0-42.43L185.74,8.79A30,30,0,0,0,143.32,8.79ZM86.75,192.63,44.32,150.21a10,10,0,0,1,0-14.14l49.5-49.5,56.57,56.57-49.5,49.49A10,10,0,0,1,86.75,192.63ZM164.53,129,108,72.43l49.5-49.5a10,10,0,0,1,14.14,0l49.5,49.5Zm63.64,63.64-49.5-49.49,56.57-56.57,49.5,49.5a10,10,0,0,1,0,14.14l-42.43,42.42A10,10,0,0,1,228.17,192.63Z"/><path class="cls-1" d="M41.48,265q-5.7-4.95-18-4.95a58.39,58.39,0,0,0-17.35,2.45,2.34,2.34,0,0,0-1.67,3.13L5.78,271c.4,1.76,1.44,2.29,3.14,1.57a37.15,37.15,0,0,1,13.14-2.36q7.15,0,10.2,2.7t3,9V283H19.9Q0,283,0,299.2q0,7.74,4.61,11.86t13.33,4.12q13.83,0,18.63-10l.69-1.57h1.27l-.39,1.08a15.56,15.56,0,0,0-.59,4.61v2.35q0,2.55,2.46,2.55h4.6a2.25,2.25,0,0,0,2.55-2.55V280.86Q47.16,270,41.48,265Zm-6.18,27.4a12.56,12.56,0,0,1-3.78,9.51q-3.76,3.63-10,3.63-5.29,0-7.5-1.62c-1.47-1.07-2.2-2.89-2.2-5.44s.75-4.43,2.25-5.44,4.15-1.52,7.94-1.52H35.3Z"/><path class="cls-1" d="M90.7,260.08H89.23a18.91,18.91,0,0,0-11.77,3.72,20.64,20.64,0,0,0-7.06,10.69l-.49,1.57H68.64l.39-1.28a24,24,0,0,0,.59-5.39v-5.78a2.25,2.25,0,0,0-2.55-2.55H60.69c-1.63,0-2.45.85-2.45,2.55v48c0,1.7.82,2.55,2.45,2.55h7.06q2.46,0,2.46-2.55V296.16q0-11.18,5-17.75a15.91,15.91,0,0,1,13.33-6.76H90.7c1.57.13,2.35-.66,2.35-2.36v-6.67A2.28,2.28,0,0,0,90.7,260.08Z"/><path class="cls-1" d="M124.72,283.41l-6.37-1.27q-5.68-1.18-7.85-2.5a4.3,4.3,0,0,1-2.15-3.88,4.49,4.49,0,0,1,2.84-4.36c1.9-.88,4.9-1.32,9-1.32A48.79,48.79,0,0,1,133,271.74q2.44.69,2.94-1.76l.88-5.49a2.27,2.27,0,0,0-2-2.94,74.36,74.36,0,0,0-14.8-1.47q-23.53,0-23.54,15.78,0,6.48,3.58,10.15t11,5.15l6.28,1.27q6,1.19,8.19,2.41a4.27,4.27,0,0,1,2.2,4.06q0,6.18-13.14,6.18A49,49,0,0,1,100.21,303q-2.65-.67-3,1.87l-.88,5.58a2.31,2.31,0,0,0,1.86,2.95,67.71,67.71,0,0,0,16.57,1.86q25.2,0,25.2-16.57Q139.92,286.35,124.72,283.41Z"/><path class="cls-1" d="M169.73,260.08q-11.39,0-17.5,6.27T146.1,284.2v6.66q0,12,6.47,18.19t19,6.23a54.88,54.88,0,0,0,16.67-2.35q2.44-.8,1.67-3.34l-1.57-5.78q-.69-2.46-3.14-1.47a32.92,32.92,0,0,1-12.45,2.35q-7.36,0-10.79-2.65t-3.92-8.82h32.46c1.69,0,2.54-.82,2.54-2.45V284.2q0-11.58-6.07-17.85T169.73,260.08ZM181.3,283H158q.19-6.76,3-9.66t9.12-2.89q11.17,0,11.18,10.88Z"/><path class="cls-1" d="M231.31,260.08a21,21,0,0,0-10.79,2.69,14.2,14.2,0,0,0-6.37,7.31l-.69,1.66h-1.18l.3-1.27a18.06,18.06,0,0,0,.59-5.2v-1.66a2.26,2.26,0,0,0-2.55-2.55h-6.38c-1.63,0-2.45.85-2.45,2.55v48c0,1.7.82,2.55,2.45,2.55h7.06c1.64,0,2.45-.85,2.45-2.55V285.86a16,16,0,0,1,3.83-10.93,12.55,12.55,0,0,1,9.9-4.36q6.18,0,9.07,3.23t2.89,10.2v27.65A2.25,2.25,0,0,0,242,314.2h7q2.46,0,2.46-2.55V282.24Q251.41,260.07,231.31,260.08Z"/><path class="cls-1" d="M300.24,265q-5.7-4.95-18.05-4.95a58.39,58.39,0,0,0-17.35,2.45,2.34,2.34,0,0,0-1.67,3.13l1.37,5.3c.4,1.76,1.44,2.29,3.14,1.57a37.07,37.07,0,0,1,13.14-2.36q7.15,0,10.2,2.7t3,9V283h-15.4q-19.91,0-19.9,16.18,0,7.74,4.61,11.86t13.33,4.12q13.83,0,18.63-10l.69-1.57h1.27l-.39,1.08a15.56,15.56,0,0,0-.59,4.61v2.35c0,1.7.82,2.55,2.45,2.55h4.61a2.25,2.25,0,0,0,2.55-2.55V280.86Q305.92,270,300.24,265Zm-6.18,27.4a12.56,12.56,0,0,1-3.78,9.51c-2.51,2.42-5.87,3.63-10,3.63q-5.3,0-7.5-1.62c-1.47-1.07-2.2-2.89-2.2-5.44s.75-4.43,2.25-5.44,4.15-1.52,7.94-1.52h13.34Z"/><path class="cls-1" d="M326.61,245.56h-7.06c-1.63,0-2.45.85-2.45,2.55l-.1,63.54c0,1.7.82,2.55,2.45,2.55h7.06c1.64,0,2.45-.85,2.45-2.55l.1-63.54C329.06,246.41,328.24,245.56,326.61,245.56Z"/></g></g></svg>