<svg width="35" height="35" viewBox="0 0 35 35" fill="none" xmlns="http://www.w3.org/2000/svg">
<path d="M29.4798 8.08731C29.4798 9.50503 28.3304 10.6544 26.9127 10.6544C25.495 10.6544 24.3456 9.50503 24.3456 8.08731C24.3456 6.66954 25.495 5.52022 26.9127 5.52022C28.3304 5.52022 29.4798 6.66954 29.4798 8.08731Z" fill="#861B64"/>
<path fill-rule="evenodd" clip-rule="evenodd" d="M17.5 26.057C22.2258 26.057 26.057 22.2259 26.057 17.5C26.057 12.7742 22.2258 8.94304 17.5 8.94304C12.7741 8.94304 8.94299 12.7742 8.94299 17.5C8.94299 22.2259 12.7741 26.057 17.5 26.057ZM17.5 22.6342C20.3356 22.6342 22.6342 20.3356 22.6342 17.5C22.6342 14.6644 20.3356 12.3658 17.5 12.3658C14.6644 12.3658 12.3658 14.6644 12.3658 17.5C12.3658 20.3356 14.6644 22.6342 17.5 22.6342Z" fill="#861B64"/>
<path fill-rule="evenodd" clip-rule="evenodd" d="M0.386047 16.8154C0.386047 11.0646 0.386048 8.18915 1.50523 5.99267C2.4897 4.06054 4.06055 2.48968 5.99269 1.50522C8.18916 0.386033 11.0647 0.386032 16.8155 0.386032H18.1846C23.9354 0.386032 26.8109 0.386033 29.0073 1.50522C30.9394 2.48968 32.5103 4.06054 33.4947 5.99267C34.614 8.18915 34.614 11.0646 34.614 16.8154V18.1846C34.614 23.9354 34.614 26.8109 33.4947 29.0073C32.5103 30.9394 30.9394 32.5103 29.0073 33.4947C26.8109 34.614 23.9354 34.614 18.1846 34.614H16.8155C11.0647 34.614 8.18916 34.614 5.99269 33.4947C4.06055 32.5103 2.4897 30.9394 1.50523 29.0073C0.386048 26.8109 0.386047 23.9354 0.386047 18.1846V16.8154ZM16.8155 3.80883H18.1846C21.1165 3.80883 23.1095 3.8115 24.6501 3.93735C26.1508 4.05996 26.9182 4.28218 27.4535 4.55494C28.7415 5.21127 29.7887 6.2585 30.445 7.54652C30.7178 8.08184 30.9401 8.84923 31.0627 10.35C31.1885 11.8906 31.1912 13.8835 31.1912 16.8154V18.1846C31.1912 21.1165 31.1885 23.1095 31.0627 24.6501C30.9401 26.1508 30.7178 26.9182 30.445 27.4535C29.7887 28.7415 28.7415 29.7887 27.4535 30.445C26.9182 30.7178 26.1508 30.9401 24.6501 31.0627C23.1095 31.1884 21.1165 31.1912 18.1846 31.1912H16.8155C13.8835 31.1912 11.8906 31.1884 10.35 31.0627C8.84925 30.9401 8.08186 30.7178 7.54653 30.445C6.25852 29.7887 5.21128 28.7415 4.55496 27.4535C4.2822 26.9182 4.05997 26.1508 3.93737 24.6501C3.81151 23.1095 3.80884 21.1165 3.80884 18.1846V16.8154C3.80884 13.8835 3.81151 11.8906 3.93737 10.35C4.05997 8.84923 4.2822 8.08184 4.55496 7.54652C5.21128 6.2585 6.25852 5.21127 7.54653 4.55494C8.08186 4.28218 8.84925 4.05996 10.35 3.93735C11.8906 3.8115 13.8835 3.80883 16.8155 3.80883Z" fill="#861B64"/>
</svg>
