<svg width="26" height="25" viewBox="0 0 26 25" fill="none" xmlns="http://www.w3.org/2000/svg">
<path d="M25 24L22.6 21.7M12.4 22.85C13.8971 22.85 15.3795 22.5674 16.7626 22.0184C18.1457 21.4694 19.4024 20.6646 20.461 19.6501C21.5196 18.6357 22.3593 17.4313 22.9322 16.1058C23.5051 14.7803 23.8 13.3597 23.8 11.925C23.8 10.4903 23.5051 9.06967 22.9322 7.74418C22.3593 6.4187 21.5196 5.21434 20.461 4.19986C19.4024 3.18538 18.1457 2.38065 16.7626 1.83162C15.3795 1.28258 13.8971 1 12.4 1C9.37653 1 6.4769 2.15102 4.33898 4.19986C2.20107 6.24869 1 9.02751 1 11.925C1 14.8225 2.20107 17.6013 4.33898 19.6501C6.4769 21.699 9.37653 22.85 12.4 22.85Z" stroke="#861854" stroke-width="1.5" stroke-linecap="round" stroke-linejoin="round"/>
</svg>
