<svg width="36" height="36" viewBox="0 0 36 36" fill="none" xmlns="http://www.w3.org/2000/svg">
<path d="M30.4822 5.6397C27.1647 2.31943 22.7528 0.489964 18.0522 0.488098C8.36691 0.488098 0.48428 8.36772 0.480404 18.0531C0.479159 21.149 1.28828 24.1711 2.82594 26.8349L0.333069 35.9376L9.64809 33.495C12.2147 34.8943 15.1042 35.6318 18.0452 35.6331H18.0524C27.7367 35.6331 35.6201 27.7525 35.624 18.067C35.6258 13.3734 33.7998 8.95998 30.4822 5.6397ZM18.0524 32.6663H18.0464C15.4257 32.6653 12.8553 31.9615 10.613 30.6312L10.0796 30.3148L4.55195 31.7644L6.0274 26.3767L5.68005 25.8243C4.21809 23.4997 3.44596 20.8129 3.4471 18.0542C3.45026 10.0042 10.002 3.45489 18.0581 3.45489C21.959 3.45638 25.626 4.9771 28.3834 7.73675C31.1409 10.4964 32.6586 14.1647 32.6571 18.0659C32.654 26.1166 26.1022 32.6663 18.0524 32.6663ZM26.0635 21.7315C25.6243 21.5118 23.4658 20.45 23.0633 20.3035C22.6609 20.157 22.3682 20.0837 22.0754 20.5232C21.7828 20.9626 20.9414 21.9512 20.6852 22.2441C20.4291 22.5371 20.173 22.5737 19.734 22.354C19.2949 22.1343 17.8802 21.6708 16.2032 20.1755C14.898 19.0118 14.0168 17.5744 13.7607 17.1349C13.5046 16.6955 13.7335 16.458 13.9532 16.2391C14.1507 16.0425 14.3923 15.7265 14.6118 15.4702C14.8313 15.2139 14.9045 15.0308 15.0509 14.7379C15.1972 14.4449 15.124 14.1886 15.0143 13.9689C14.9045 13.7492 14.0264 11.5888 13.6605 10.71C13.3042 9.85413 12.9421 9.96993 12.6726 9.95649C12.4168 9.94376 12.1238 9.94108 11.8312 9.94108C11.5385 9.94108 11.0628 10.0509 10.6604 10.4903C10.258 10.9297 9.12374 11.9916 9.12374 14.152C9.12374 16.3123 10.697 18.3995 10.9165 18.6924C11.136 18.9853 14.0124 23.4187 18.4168 25.3199C19.4644 25.7721 20.2821 26.0422 20.9198 26.2445C21.9716 26.5784 22.9287 26.5314 23.6853 26.4184C24.5288 26.2924 26.2829 25.3566 26.6488 24.3313C27.0147 23.306 27.0147 22.4273 26.9049 22.2442C26.7952 22.0611 26.5025 21.9512 26.0635 21.7315Z" fill="#861854"/>
</svg>
