<svg width="26" height="30" viewBox="0 0 26 30" fill="none" xmlns="http://www.w3.org/2000/svg">
<path d="M25.6204 19.3704V26.6204C25.6204 27.2613 25.3658 27.876 24.9125 28.3292C24.4593 28.7824 23.8446 29.037 23.2037 29.037C22.5628 29.037 21.9481 28.7824 21.4949 28.3292C21.0416 27.876 20.787 27.2613 20.787 26.6204V19.3704C20.787 18.7294 20.5324 18.1148 20.0792 17.6615C19.626 17.2083 19.0113 16.9537 18.3704 16.9537C17.7294 16.9537 17.1147 17.2083 16.6615 17.6615C16.2083 18.1148 15.9537 18.7294 15.9537 19.3704V26.6204C15.9537 27.2613 15.6991 27.876 15.2459 28.3292C14.7927 28.7824 14.178 29.037 13.537 29.037C12.8961 29.037 12.2814 28.7824 11.8282 28.3292C11.375 27.876 11.1204 27.2613 11.1204 26.6204V14.537C11.1224 14.0591 11.2661 13.5925 11.5332 13.1962C11.8004 12.7999 12.1791 12.4917 12.6215 12.3107C13.0638 12.1296 13.5499 12.0837 14.0183 12.1789C14.4867 12.2741 14.9163 12.506 15.2529 12.8454C16.225 12.3745 17.2902 12.1268 18.3704 12.1204C20.2932 12.1204 22.1373 12.8842 23.4969 14.2439C24.8565 15.6035 25.6204 17.4476 25.6204 19.3704ZM3.87036 12.1204C3.22942 12.1204 2.61474 12.375 2.16152 12.8282C1.70831 13.2814 1.4537 13.8961 1.4537 14.537V26.6204C1.4537 27.2613 1.70831 27.876 2.16152 28.3292C2.61474 28.7824 3.22942 29.037 3.87036 29.037C4.5113 29.037 5.12599 28.7824 5.5792 28.3292C6.03242 27.876 6.28703 27.2613 6.28703 26.6204V14.537C6.28703 13.8961 6.03242 13.2814 5.5792 12.8282C5.12599 12.375 4.5113 12.1204 3.87036 12.1204ZM3.87036 0.0370483C3.15341 0.0370483 2.45255 0.249651 1.85642 0.647971C1.26029 1.04629 0.795667 1.61244 0.5213 2.27482C0.246932 2.9372 0.175145 3.66607 0.315016 4.36925C0.454888 5.07243 0.800135 5.71835 1.3071 6.22531C1.81407 6.73228 2.45998 7.07752 3.16316 7.2174C3.86634 7.35727 4.59521 7.28548 5.25759 7.01111C5.91997 6.73674 6.48612 6.27212 6.88444 5.67599C7.28276 5.07986 7.49536 4.37901 7.49536 3.66205C7.49536 2.70064 7.11345 1.77861 6.43363 1.09879C5.75381 0.418966 4.83177 0.0370483 3.87036 0.0370483Z" fill="#861B64"/>
</svg>
